<?xml version="1.0" encoding="iso-8859-1"?>
<!-- Generator: Adobe Illustrator 21.0.2, SVG Export Plug-In . SVG Version: 6.00 Build 0)  -->
<svg xmlns="http://www.w3.org/2000/svg" xmlns:xlink="http://www.w3.org/1999/xlink" version="1.1" id="Layer_1" x="0px" y="0px" viewBox="0 0 40 40" style="enable-background:new 0 0 40 40;" xml:space="preserve">
<g>
	<path style="fill:#98CCFD;" d="M3.721,34.5c-1.225,0-2.221-0.996-2.221-2.221V7.721C1.5,6.496,2.496,5.5,3.721,5.5h32.559   c1.225,0,2.221,0.996,2.221,2.221v24.559c0,1.225-0.996,2.221-2.221,2.221H3.721z"/>
	<g>
		<path style="fill:#4788C7;" d="M36.279,6C37.228,6,38,6.772,38,7.721v24.558C38,33.228,37.228,34,36.279,34H3.721    C2.772,34,2,33.228,2,32.279V7.721C2,6.772,2.772,6,3.721,6H36.279 M36.279,5H3.721C2.218,5,1,6.218,1,7.721v24.558    C1,33.782,2.218,35,3.721,35h32.558C37.782,35,39,33.782,39,32.279V7.721C39,6.218,37.782,5,36.279,5L36.279,5z"/>
	</g>
</g>
<path style="fill:#FFFFFF;" d="M31.5,10.5L30,12h-4l-1.5-1.5L26,9h4L31.5,10.5z M25,27V13l-1.5-1.5L22,13v14l1.5,1.5L25,27z M30,28  h-4l-1.5,1.5L26,31h4l1.5-1.5L30,28z M32.5,11.5L31,13v14l1.5,1.5L34,27V13L32.5,11.5z"/>
<path style="fill:#FFFFFF;" d="M15.5,10.5L14,12h-4l-1.5-1.5L10,9h4L15.5,10.5z M9,27V13l-1.5-1.5L6,13v14l1.5,1.5L9,27z M14,28h-4  l-1.5,1.5L10,31h4l1.5-1.5L14,28z M16.5,11.5L15,13v14l1.5,1.5L18,27V13L16.5,11.5z"/>
</svg>
