<?xml version="1.0" encoding="iso-8859-1"?>
<!-- Generator: Adobe Illustrator 21.0.2, SVG Export Plug-In . SVG Version: 6.00 Build 0)  -->
<svg xmlns="http://www.w3.org/2000/svg" xmlns:xlink="http://www.w3.org/1999/xlink" version="1.1" id="Layer_1" x="0px" y="0px" viewBox="0 0 40 40" style="enable-background:new 0 0 40 40;" xml:space="preserve">
<g>
	<rect x="6.5" y="4.5" style="fill:#DFF0FE;" width="3" height="31"/>
	<path style="fill:#4788C7;" d="M9,5v30H7V5H9 M10,4H6v32h4V4L10,4z"/>
</g>
<g>
	<rect x="12.5" y="4.5" style="fill:#DFF0FE;" width="3" height="31"/>
	<path style="fill:#4788C7;" d="M15,5v30h-2V5H15 M16,4h-4v32h4V4L16,4z"/>
</g>
<g>
	<rect x="18.5" y="4.5" style="fill:#DFF0FE;" width="3" height="31"/>
	<path style="fill:#4788C7;" d="M21,5v30h-2V5H21 M22,4h-4v32h4V4L22,4z"/>
</g>
<g>
	<rect x="24.5" y="4.5" style="fill:#DFF0FE;" width="3" height="31"/>
	<path style="fill:#4788C7;" d="M27,5v30h-2V5H27 M28,4h-4v32h4V4L28,4z"/>
</g>
<g>
	<rect x="30.5" y="4.5" style="fill:#DFF0FE;" width="3" height="31"/>
	<path style="fill:#4788C7;" d="M33,5v30h-2V5H33 M34,4h-4v32h4V4L34,4z"/>
</g>
<g>
	<path style="fill:#98CCFD;" d="M4,31.5c-0.827,0-1.5-0.673-1.5-1.5V10c0-0.827,0.673-1.5,1.5-1.5h32c0.827,0,1.5,0.673,1.5,1.5v20   c0,0.827-0.673,1.5-1.5,1.5H4z"/>
	<g>
		<path style="fill:#4788C7;" d="M36,9c0.551,0,1,0.449,1,1v20c0,0.551-0.449,1-1,1H4c-0.551,0-1-0.449-1-1V10c0-0.551,0.449-1,1-1    H36 M36,8H4c-1.105,0-2,0.895-2,2v20c0,1.105,0.895,2,2,2h32c1.105,0,2-0.895,2-2V10C38,8.895,37.105,8,36,8L36,8z"/>
	</g>
</g>
<path style="fill:#FFFFFF;" d="M12,25H7V15h2v8h3V25z"/>
<path style="fill:#FFFFFF;" d="M21,24.487C20.247,24.831,19.306,25,18.093,25c-1.582,0-2.827-0.435-3.733-1.307S13,21.658,13,20.206  c0-1.547,0.509-2.801,1.528-3.763S16.87,15,18.496,15c1.007,0,1.814,0.12,2.504,0.358v2.097C20.309,17.068,19.083,17,18.683,17  C17.714,17,15,17.167,15,20s2.604,3,3.553,3c0.906,0,1.694-0.088,2.447-0.501V24.487z"/>
<path style="fill:#FFFFFF;" d="M24,25V15h3.84c3.44,0,5.16,1.626,5.16,4.874c0,1.559-0.47,2.802-1.408,3.732  C30.653,24.535,29.402,25,27.84,25H24z M26,17v6h1.217C28.162,23,31,22.917,31,20s-2.833-3-3.797-3H26z"/>
</svg>
